# xmcd
#
# Track frame offsets:
# 150
# 30199
# 51592
# 81433
# 104693
# 127497
# 151119
# 168161
#
# Disc length: 2640 seconds
#
#
# Revision: 0
# Processed by: cddbd v1.5.1PL0 Copyright (c) Steve Scherf et al.
# Submitted via: FreeRIP 2.942 
#
DISCID=670a4e08
DTITLE=Stan Hirsch and Eric McFadden - Captured Alive Doin' Jazz
DYEAR=2004
DGENRE=Jazz
TTITLE0=Afro Blue
TTITLE1=Night Train
TTITLE2=All Blues
TTITLE3=Black Magic Woman/Gypsy Queen
TTITLE4=Song For My Father
TTITLE5=Open Country Joy
TTITLE6=Minor Swing
TTITLE7=Goodbye Pork Pie Hat
EXTD=
EXTT0=
EXTT1=
EXTT2=
EXTT3=
EXTT4=
EXTT5=
EXTT6=
EXTT7=
PLAYORDER=
